<?xml version="1.0" encoding="iso-8859-1"?>
<!-- Generator: Adobe Illustrator 19.0.0, SVG Export Plug-In . SVG Version: 6.00 Build 0)  -->
<svg version="1.1" id="Capa_1" xmlns="http://www.w3.org/2000/svg" xmlns:xlink="http://www.w3.org/1999/xlink" x="0px" y="0px"
	 viewBox="0 0 512 512" style="enable-background:new 0 0 512 512;" xml:space="preserve">
<path style="fill:#303C42;" d="M469.333,106.667H42.667C19.135,106.667,0,125.802,0,149.333v213.333
	c0,23.531,19.135,42.667,42.667,42.667h426.667c23.531,0,42.667-19.135,42.667-42.667V149.333
	C512,125.802,492.865,106.667,469.333,106.667z"/>
<path style="fill:#74A333;" d="M490.667,362.667c0,11.76-9.573,21.333-21.333,21.333H42.667c-11.76,0-21.333-9.573-21.333-21.333
	V149.333c0-11.76,9.573-21.333,21.333-21.333h426.667c11.76,0,21.333,9.573,21.333,21.333V362.667z"/>
<path style="opacity:0.1;enable-background:new    ;" d="M469.333,128v170.565c0,35.402-28.699,64.102-64.1,64.102h-383.9
	c0,11.76,9.573,21.333,21.333,21.333h426.667c11.76,0,21.333-9.573,21.333-21.333V149.333C490.667,137.573,481.094,128,469.333,128z
	"/>
<g>
	<path style="fill:#FFFFFF;" d="M160,224c5.896,0,10.667-4.771,10.667-10.667c0-5.896-4.771-10.667-10.667-10.667h-42.667
		c-5.896,0-10.667,4.771-10.667,10.667v85.333c0,5.896,4.771,10.667,10.667,10.667H160c5.896,0,10.667-4.771,10.667-10.667
		c0-5.896-4.771-10.667-10.667-10.667h-32v-21.333h21.333c5.896,0,10.667-4.771,10.667-10.667c0-5.896-4.771-10.667-10.667-10.667
		H128V224H160z"/>
	<path style="fill:#FFFFFF;" d="M245.333,202.667c-5.896,0-10.667,4.771-10.667,10.667v21.333c0,5.885-4.781,10.667-10.667,10.667
		c-5.885,0-10.667-4.781-10.667-10.667v-21.333c0-5.896-4.771-10.667-10.667-10.667S192,207.438,192,213.333v21.333
		c0,8.188,3.094,15.667,8.167,21.333c-5.073,5.667-8.167,13.146-8.167,21.333v21.333c0,5.896,4.771,10.667,10.667,10.667
		s10.667-4.771,10.667-10.667v-21.333c0-5.885,4.781-10.667,10.667-10.667c5.885,0,10.667,4.781,10.667,10.667v21.333
		c0,5.896,4.771,10.667,10.667,10.667c5.896,0,10.667-4.771,10.667-10.667v-21.333c0-8.188-3.094-15.667-8.167-21.333
		c5.073-5.667,8.167-13.146,8.167-21.333v-21.333C256,207.438,251.229,202.667,245.333,202.667z"/>
	<path style="fill:#FFFFFF;" d="M298.667,202.667c-5.896,0-10.667,4.771-10.667,10.667v85.333c0,5.896,4.771,10.667,10.667,10.667
		c5.896,0,10.667-4.771,10.667-10.667v-85.333C309.333,207.438,304.563,202.667,298.667,202.667z"/>
	<path style="fill:#FFFFFF;" d="M394.667,202.667h-64c-5.896,0-10.667,4.771-10.667,10.667c0,5.896,4.771,10.667,10.667,10.667H352
		v74.667c0,5.896,4.771,10.667,10.667,10.667c5.896,0,10.667-4.771,10.667-10.667V224h21.333c5.896,0,10.667-4.771,10.667-10.667
		C405.333,207.438,400.563,202.667,394.667,202.667z"/>
</g>
<linearGradient id="SVGID_1_" gradientUnits="userSpaceOnUse" x1="-46.645" y1="640.0523" x2="-22.7613" y2="628.9164" gradientTransform="matrix(21.3333 0 0 -21.3333 996.3334 13791.667)">
	<stop  offset="0" style="stop-color:#FFFFFF;stop-opacity:0.2"/>
	<stop  offset="1" style="stop-color:#FFFFFF;stop-opacity:0"/>
</linearGradient>
<path style="fill:url(#SVGID_1_);" d="M469.333,106.667H42.667C19.135,106.667,0,125.802,0,149.333v213.333
	c0,23.531,19.135,42.667,42.667,42.667h426.667c23.531,0,42.667-19.135,42.667-42.667V149.333
	C512,125.802,492.865,106.667,469.333,106.667z"/>
<g>
</g>
<g>
</g>
<g>
</g>
<g>
</g>
<g>
</g>
<g>
</g>
<g>
</g>
<g>
</g>
<g>
</g>
<g>
</g>
<g>
</g>
<g>
</g>
<g>
</g>
<g>
</g>
<g>
</g>
</svg>
